<svg width="44" height="44" viewBox="0 0 44 44" fill="none" xmlns="http://www.w3.org/2000/svg">
<path fill-rule="evenodd" clip-rule="evenodd" d="M42.6748 22.2676C42.6748 20.7237 42.5362 19.2392 42.2789 17.8141H21.7729V26.2362H33.4906C32.9859 28.9578 31.4519 31.2637 29.146 32.8076V38.2706H36.1825C40.2996 34.4801 42.6748 28.8984 42.6748 22.2676Z" fill="#4285F4"/>
<path fill-rule="evenodd" clip-rule="evenodd" d="M21.7728 43.5454C27.6515 43.5454 32.58 41.5957 36.1824 38.2704L29.1459 32.8074C27.1962 34.1138 24.7022 34.8858 21.7728 34.8858C16.102 34.8858 11.3021 31.0557 9.58999 25.9095H2.31592V31.5506C5.89852 38.6663 13.2617 43.5454 21.7728 43.5454Z" fill="#34A853"/>
<path fill-rule="evenodd" clip-rule="evenodd" d="M9.5899 25.9094C9.15444 24.603 8.90702 23.2076 8.90702 21.7726C8.90702 20.3376 9.15444 18.9421 9.5899 17.6358V11.9947H2.31583C0.841219 14.934 0 18.2593 0 21.7726C0 25.2859 0.841219 28.6112 2.31583 31.5505L9.5899 25.9094Z" fill="#FBBC05"/>
<path fill-rule="evenodd" clip-rule="evenodd" d="M21.7728 8.65961C24.9694 8.65961 27.8395 9.75814 30.0959 11.9156L36.3408 5.67081C32.5701 2.15748 27.6416 0 21.7728 0C13.2617 0 5.89852 4.87907 2.31592 11.9948L9.58999 17.6359C11.3021 12.4896 16.102 8.65961 21.7728 8.65961Z" fill="#EA4335"/>
</svg>
